# xmcd
#
# Track frame offsets:
#	150
#	8032
#	12649
#	25253
#	89816
#	95532
#	99661
#	104756
#	149279
#	173521
#	183640
#
# Disc length: 2712 seconds
#
# Revision: 1
# Processed by: cddbd v1.5.1PL0 Copyright (c) Steve Scherf et al.
# Submitted via: EasyCDDAExtractor 7.0.4.1
#
DISCID=930a960b
DTITLE=woomyung
DYEAR=1900
DGENRE=
TTITLE0=Track 1-2
TTITLE1=track 2-2
TTITLE2=Track 3-2
TTITLE3=Track 4-2
TTITLE4=Track 5-2
TTITLE5=Track 6-2
TTITLE6=Track 7-2
TTITLE7=Track 8-2
TTITLE8=Track 9-2
TTITLE9=Track 10-2
TTITLE10=Track 11-2
EXTD=
EXTT0=
EXTT1=
EXTT2=
EXTT3=
EXTT4=
EXTT5=
EXTT6=
EXTT7=
EXTT8=
EXTT9=
EXTT10=
PLAYORDER=
